<?xml version="1.0" encoding="utf-8"?>
<!-- Generator: Adobe Illustrator 15.0.0, SVG Export Plug-In . SVG Version: 6.00 Build 0)  -->
<!DOCTYPE svg PUBLIC "-//W3C//DTD SVG 1.1//EN" "http://www.w3.org/Graphics/SVG/1.1/DTD/svg11.dtd">
<svg version="1.1" id="Calque_1" xmlns="http://www.w3.org/2000/svg" xmlns:xlink="http://www.w3.org/1999/xlink" x="0px" y="0px"
	 width="600px" height="192px" viewBox="0 0 600 192" enable-background="new 0 0 600 192" xml:space="preserve">
<g>
	<g>
		<path fill="#FFFFFF" d="M149.641,75.547c-0.82,0.889-1.384,2.427-1.692,4.614c-6.118,7.623-14.936,19.908-26.452,36.859
			c-11.211,16.404-20.131,28.605-26.76,36.603c-3.35,4.102-6.836,8.117-10.458,12.047c-0.718,0.752-1.896,1.128-3.537,1.128
			c-0.205,0-0.702-0.035-1.487-0.103c-0.787,0-1.214,0-1.282,0c-3.042-6.082-6.151-15.669-9.33-28.76
			c-3.213-13.361-6.203-23.018-8.971-28.964c-1.914,2.666-8.784,13.397-20.608,32.194c-0.069,0.548-0.205,1.35-0.41,2.409
			c-0.582,1.71-2.65,4.87-6.203,9.483c-3.829,4.922-6.29,7.383-7.382,7.383h0.051c0,0.068-1.727,0.308-5.178,0.717L0,95.541
			c0.341-1.059,0.887-2.615,1.64-4.665c3.656,3.042,7.126,10.373,10.407,21.992c0.375,1.3,1.128,3.813,2.256,7.537
			c0.103,1.572,0.443,3.947,1.025,7.125c0.718,1.333,1.692,3.419,2.922,6.254c0.444,1.813,1.264,5.042,2.46,9.689
			c1.333,4.957,2.666,7.434,3.999,7.434c1.948,0,7.86-8.373,17.738-25.119c8.475-14.422,14.2-24.744,17.173-30.964
			c0.546,0.548,1.436,1.197,2.666,1.949c2.528,4.271,4.938,11.192,7.228,20.762c0.854,3.793,2.461,10.578,4.819,20.352
			c1.811,7.418,4.015,13.91,6.613,19.48h0.051c0.58,0,1.451-0.682,2.614-2.051c1.093-1.297,2.769-3.245,5.024-5.844
			c3.11-3.383,5.724-6.459,7.844-9.228l52.187-67.566L149.641,75.547z"/>
		<path fill="#FFFFFF" d="M187.371,160.236c-1.266,1.504-2.906,2.256-4.921,2.256h-18.147c-4.204,0-8.887-0.632-14.046-1.896
			c-6.767-1.641-10.596-3.707-11.483-6.203c-0.992-2.803-1.487-5.486-1.487-8.049c0-5.16,2.221-9.125,6.665-11.894
			c3.758-2.392,8.338-3.589,13.739-3.589c4.647,0,8.338,1,11.073,3c2.733,1.998,4.101,4.725,4.101,8.176
			c0,1.914-3.281,4.017-9.843,6.306c-5.434,1.948-9.381,2.922-11.842,2.922c-0.307,0-0.582-0.016-0.82-0.052
			c0,0.479-0.376,1.061-1.128,1.744c0.41,0.684,2.409,1.471,5.998,2.357c3.212,0.82,5.501,1.23,6.869,1.23H178.4
			c0,0.035,2.05,0.344,6.152,0.923C185.849,158.288,186.79,159.211,187.371,160.236z M166.25,139.781
			c-1.914-1.947-4.99-2.922-9.228-2.922c-2.973,0-5.726,0.582-8.253,1.743c-3.281,1.505-4.921,3.537-4.921,6.101
			c0,0.923,0.308,1.573,0.923,1.947h3.281c1.162,0,4.306-0.973,9.433-2.922C162.611,141.781,165.532,140.466,166.25,139.781z"/>
		<path fill="#FFFFFF" d="M261.141,141.576c0,2.598-2.889,5.605-8.664,9.022c-4.306,2.599-8.494,4.528-12.56,5.792
			c-3.726,1.129-8.374,2.018-13.944,2.666c-1.573,0.205-6.323,0.754-14.251,1.641c-0.923,0.104-3.572,0.564-7.946,1.385
			c-3.555,0.65-6.067,0.974-7.536,0.974c-0.855,0-2.17-0.513-3.947-1.538c0.957-2.256,2.135-3.622,3.537-4.102
			c2.187-0.717,6.152-1.297,11.894-1.742c3.553-0.272,10.355-0.939,20.403-2c3.212-0.375,8.407-1.999,15.584-4.869
			c7.621-3.041,11.432-5.691,11.432-7.946c0-0.067,0-0.136,0-0.205c-0.205-1.948-2.666-3.604-7.382-4.973
			c-3.794-1.093-7.28-1.641-10.458-1.641c-0.308,0-0.53,0.018-0.667,0.052l-34.347,6.459c-0.171,0.035-0.394,0.051-0.667,0.051
			c-1.333,0-3.521-0.494-6.562-1.486v-13.943c0-4.374,0.29-10.525,0.872-18.455l2.205-29.631c0.239-3.348,0.872-6.083,1.896-8.203
			h2.974c1.059,1.607,1.589,3.606,1.589,5.998c0,0.41-0.018,0.804-0.051,1.179l-3.588,54.29c0,0.068,0,0.119,0,0.153
			c0,0.685,0.359,1.419,1.077,2.204c0.718,0.855,1.452,1.281,2.205,1.281c0.307,0,3.417-0.393,9.33-1.179l19.327-2.512
			c4.783-0.615,7.416-0.923,7.895-0.923c4.75,0,9.09,0.923,13.021,2.768C258.696,134.434,261.141,137.577,261.141,141.576z"/>
	</g>
	<g>
		<g>
			<path fill="#FFFFFF" d="M595.37,47.488L439.527-0.495c-1.272-0.395-2.621-0.388-3.887,0.006L281.847,47.495
				c-2.733,0.852-4.598,3.377-4.607,6.238l-0.064,16.389c1.993-0.497,4.069-0.792,6.216-0.792c2.396,0,4.707,0.353,6.908,0.971
				l0.045-11.711l147.264-45.945l149.269,45.958v121.061H408.066c-3.623,0-6.562,2.938-6.562,6.562s2.938,6.562,6.562,6.562h185.372
				c3.624,0,6.563-2.938,6.563-6.562V53.758C600,50.878,598.122,48.334,595.37,47.488z"/>
		</g>
	</g>
	<g>
		<path fill="#FFFFFF" d="M352.957,104.443c-1.586,0.752-2.874,1.127-3.867,1.127c0.16,0,0.24,0.015,0.24,0.041
			c-0.24,0.134-1.061,0.336-2.458,0.604h0.08c-0.32-0.08-1.381-0.12-3.182-0.12c-0.025,0-0.375,0.12-1.048,0.362
			s-1.061,0.363-1.169,0.363c-2.227,0.135-5.223,0.482-8.984,1.048l-11.399,1.691c-0.055,0-0.289-0.054-0.705-0.161
			s-0.692-0.16-0.826-0.16h0.041c0,0.107-7.75,1.437-23.249,3.986c-2.15,2.635-3.64,7.307-4.473,14.021
			c0.968,0.564,2.175,0.846,3.627,0.846c0.08,0,0.471-0.107,1.169-0.322c0.669-0.242,1.048-0.361,1.128-0.361
			c0.025,0,0.618,0.188,1.771,0.563c4.057,0,10.65-0.135,19.781-0.403l12.451-0.402c0.08,0,0.16,0,0.24,0
			c1.074,0,1.68,0.27,1.814,0.806c0.214,0.966,0.429,1.974,0.644,3.021c-1.452,1.021-4.405,2.081-8.862,3.183
			c-3.816,0.941-9.16,1.41-16.036,1.41c-4.485,0-10.932,0.564-19.34,1.691c-0.964,0.135-1.57,0.766-1.81,1.895l-0.484,2.095
			c-1.855,4.7-2.781,7.816-2.781,9.347v1.854c0.375,0.108,0.792,0.216,1.25,0.322l30.983-4.23c0.615,0,2.441-0.08,5.479-0.241
			l0.645-0.08l4.633-0.323c0.27,0,0.699,0.188,1.288,0.564c0.538,0.053,2.524,0.08,5.963,0.08c0.108,0,0.874-0.107,2.298-0.321
			c1.422-0.215,2.162-0.323,2.217-0.323c1.557,0,3.316,0.376,5.277,1.129c0.483,1.664,0.778,2.537,0.887,2.617
			c0.026-0.025,0.039-0.08,0.039-0.16c0,0.861-0.545,1.732-1.631,2.618c-1.09,0.888-2.103,1.329-3.044,1.329
			c-0.052,0-0.388-0.065-1.006-0.199c-0.59-0.107-0.968-0.162-1.128-0.162c-0.055,0-0.686,0.195-1.895,0.584
			c-1.207,0.39-1.867,0.598-1.973,0.623l-16.963,1.452c-3.682,0.321-10.355,1.248-20.021,2.779l-12.733,2.016
			c-0.538,0-2.499-0.403-5.882-1.21c-3.169-0.726-5.104-1.088-5.803-1.088c-0.051,0-0.093,0-0.119,0
			c-0.323-0.939-0.483-1.464-0.483-1.571c0-0.133,0.589-1.946,1.771-5.438c1.292-3.867,2.15-6.566,2.58-8.099l2.134-7.452
			c-0.026,0.027-0.055,0.04-0.08,0.04c-0.135,0-0.724-0.874-1.772-2.62c-0.029-0.616-0.311-1.584-0.846-2.9
			c1.397-0.859,3.114-2.188,5.155-3.988c0.378-0.536,1.358-3.691,2.941-9.467v0.119c-0.08-0.188-0.118-0.857-0.118-2.014
			l0.564-0.645c0.32-0.348,0.483-0.657,0.483-0.927c0-0.509-0.551-1.061-1.653-1.651c-1.022-0.537-1.894-0.806-2.618-0.806
			c-0.054,0-0.122,0-0.202,0c-0.538-1.935-0.808-3.276-0.808-4.029c0-1.397,0.792-2.39,2.377-2.981
			c3.224-1.182,7.267-1.773,12.127-1.773c0.105,0,0.282,0.067,0.525,0.202c0.215,0.106,0.333,0.161,0.362,0.161
			c0.105,0,0.926-0.296,2.458-0.885c6.552-0.297,15.174-0.767,25.862-1.412l16.158-0.966h0.038c0.728,0,2.941,0.738,6.648,2.216
			c0.27,0.08,1.25,0.119,2.941,0.119C351.602,103.557,352.393,103.879,352.957,104.443z"/>
		<path fill="#FFFFFF" d="M391.998,153.514c0,0.457-0.525,1.096-1.573,1.915c-1.045,0.818-2.066,1.376-3.061,1.671
			c-1.826,0.565-5.344,1.653-10.557,3.264c-5.908,1.801-10.313,2.699-13.214,2.699c-0.08,0-0.644-0.107-1.691-0.322
			s-1.599-0.322-1.653-0.322c-0.105,0-1.103,0.215-2.979,0.645c-0.43,0-1.01-0.51-1.733-1.53c-0.753-0.968-1.128-1.706-1.128-2.216
			c0-0.162,0.416-0.793,1.249-1.894l12.368-2.297c5.29-0.966,8.903-2.028,10.839-3.184c0-0.16-0.028-0.321-0.083-0.481
			c-0.913-0.699-3.813-2.057-8.702-4.07c-5.13-2.122-8.084-3.41-8.862-3.868c-0.968-0.322-2.499-1.168-4.592-2.538
			c-0.593-0.563-0.888-1.732-0.888-3.505c0,0.135-0.028,0.202-0.08,0.202c-0.054,0-0.146-0.229-0.281-0.686
			c-0.055-0.16-0.08-0.322-0.08-0.484c0-1.127,1.288-2.188,3.867-3.182c3.089-1.209,7.692-2.344,13.818-3.404
			c6.123-1.063,11.16-1.592,15.107-1.592c1.073,0,1.771,0.174,2.096,0.523c1.611,1.773,2.419,3.062,2.419,3.867
			c0,1.531-0.525,2.539-1.573,3.023c-0.913,0.24-4.97,0.751-12.166,1.529c-1.371,0.564-2.137,0.846-2.297,0.846
			c-0.08,0-0.312-0.053-0.686-0.16c-0.43-0.107-0.687-0.161-0.767-0.161c-1.477,0-3.194,0.483-5.155,1.45
			c0.375,0.699,0.994,1.276,1.853,1.732c0.888,0.135,2.752,0.619,5.601,1.45c0.698,0.269,2.163,0.793,4.393,1.571l0.603,0.202
			c0.43,0.135,1.733,0.671,3.909,1.612c1.342,0.563,2.537,1.504,3.585,2.818c0.43,0.484,0.791,1.478,1.089,2.982
			c0,0.054,0.167,0.349,0.504,0.885C391.828,153.045,391.998,153.379,391.998,153.514z"/>
		<path fill="#FFFFFF" d="M446.265,133.209c0,0.939-0.397,1.651-1.189,2.135c-0.791,0.484-2.29,0.926-4.491,1.33
			c-1.881,0.377-3.102,0.778-3.666,1.208c-2.284,0.296-3.492,0.443-3.627,0.443c-2.229,0-5.533,0.31-9.91,0.927
			c-1.371,0.161-2.191,0.617-2.457,1.371c-0.538,1.529-1.115,3.922-1.733,7.17c-0.055,2.768-0.564,7.198-1.531,13.295
			c-0.914,1.263-1.368,1.934-1.368,2.016c-2.958-0.162-4.784-0.618-5.479-1.369c-0.323-0.377-0.483-1.397-0.483-3.063
			c0-2.041,0.631-8.272,1.894-18.694c-0.673-0.589-1.317-0.885-1.936-0.885c-0.08,0-0.16,0-0.24,0
			c-0.781,0.107-1.396,0.16-1.855,0.16c-0.294,0-0.521-0.026-0.686-0.08c-2.71-0.134-5.398-0.242-8.055-0.322
			c-3.332-0.564-4.998-2.229-4.998-4.996c0-0.939,0.362-1.785,1.089-2.539c0.725-0.751,1.545-1.127,2.458-1.127
			c0.08,0,0.839,0.073,2.274,0.221c1.438,0.148,2.211,0.223,2.316,0.223c0.055,0,0.68-0.055,1.875-0.162s1.832-0.162,1.912-0.162
			s0.417,0.123,1.01,0.364c0.563,0.215,0.884,0.322,0.964,0.322c0.135,0,0.93-0.054,2.378-0.162c1.396-0.105,2.124-0.16,2.176-0.16
			c1.371,0,2.229-0.686,2.579-2.056c0.295-1.1,0.74-2.859,1.329-5.277l2.781-7.855c0.105-1.048,0.32-2.457,0.645-4.23
			c0.698-0.994,1.384-2.189,2.054-3.586c3.143-6.581,5.802-9.871,7.978-9.871c0.939,0,2.269,1.531,3.989,4.593
			c0,0.538-0.497,1.773-1.49,3.707c-0.538,0.644-1.236,1.639-2.095,2.981c-0.699,2.203-2.191,6.339-4.474,12.408
			c-0.673,1.747-1.224,4.526-1.652,8.341c2.015,0.563,3.185,0.846,3.505,0.846l2.176-0.282c1.854-0.242,3.168-0.363,3.95-0.363
			c1.961,0,3.64,0.162,5.033,0.484l2.096,0.483C444.612,130.993,446.265,131.731,446.265,133.209z"/>
		<path fill="#FFFFFF" d="M483.976,161.492c0,0.966-0.288,1.852-0.865,2.658c-0.58,0.805-1.23,1.209-1.954,1.209
			c-1.048-0.189-4.069-1.611-9.064-4.271c-2.874-1.504-4.447-2.31-4.713-2.417c-1.131,0-2.714,0.458-4.755,1.37
			c-2.714,1.209-4.284,1.893-4.713,2.055c-1.801,0.592-3.589,0.887-5.36,0.887c-2.256,0-5.024-1.505-8.299-4.514
			c-1.128-1.609-1.691-3.047-1.691-4.309c0-1.693,0.548-3.949,1.65-6.77c0.243-0.67,1.021-1.316,2.339-1.935l2.495-1.168
			c5.803-3.546,11.105-5.319,15.915-5.319c1.371,0,3.155,0.404,5.356,1.211c0.647,0.241,1.439,1.167,2.378,2.779
			c0.968,1.611,1.451,2.807,1.451,3.585c0,1.344-0.791,2.512-2.377,3.505c-3.304-1.852-5.883-2.779-7.734-2.779
			c-1.99,0-4.031,0.498-6.123,1.491c-2.634,1.235-4.742,2.593-6.328,4.069c0.188,0.806,1.144,1.208,2.861,1.208
			c-0.135,0-0.202-0.013-0.202-0.04c0-0.188,1.788-0.833,5.36-1.934c4.242-1.343,7.398-2.016,9.468-2.016
			c0.564,0,2.563,1.438,6.001,4.311c3.707,3.117,6.354,5.077,7.937,5.883C483.656,160.807,483.976,161.223,483.976,161.492z"/>
		<path fill="#FFFFFF" d="M535.987,133.209c0,0.939-0.397,1.651-1.188,2.135c-0.791,0.484-2.291,0.926-4.492,1.33
			c-1.881,0.377-3.102,0.778-3.665,1.208c-2.285,0.296-3.492,0.443-3.627,0.443c-2.23,0-5.533,0.31-9.91,0.927
			c-1.371,0.161-2.191,0.617-2.458,1.371c-0.538,1.529-1.114,3.922-1.733,7.17c-0.054,2.768-0.563,7.198-1.531,13.295
			c-0.913,1.263-1.368,1.934-1.368,2.016c-2.957-0.162-4.783-0.618-5.479-1.369c-0.324-0.377-0.484-1.397-0.484-3.063
			c0-2.041,0.632-8.272,1.894-18.694c-0.673-0.589-1.316-0.885-1.935-0.885c-0.08,0-0.16,0-0.24,0
			c-0.782,0.107-1.397,0.16-1.855,0.16c-0.295,0-0.522-0.026-0.686-0.08c-2.711-0.134-5.398-0.242-8.055-0.322
			c-3.332-0.564-4.999-2.229-4.999-4.996c0-0.939,0.362-1.785,1.09-2.539c0.724-0.751,1.544-1.127,2.457-1.127
			c0.08,0,0.84,0.073,2.275,0.221c1.438,0.148,2.211,0.223,2.316,0.223c0.055,0,0.68-0.055,1.874-0.162
			c1.195-0.107,1.833-0.162,1.913-0.162s0.417,0.123,1.01,0.364c0.563,0.215,0.884,0.322,0.964,0.322
			c0.135,0,0.93-0.054,2.378-0.162c1.396-0.105,2.124-0.16,2.175-0.16c1.372,0,2.23-0.686,2.579-2.056
			c0.295-1.1,0.74-2.859,1.33-5.277l2.781-7.855c0.105-1.048,0.32-2.457,0.644-4.23c0.699-0.994,1.385-2.189,2.054-3.586
			c3.144-6.581,5.803-9.871,7.979-9.871c0.938,0,2.269,1.531,3.989,4.593c0,0.538-0.497,1.773-1.49,3.707
			c-0.538,0.644-1.236,1.639-2.096,2.981c-0.698,2.203-2.191,6.339-4.473,12.408c-0.673,1.747-1.224,4.526-1.653,8.341
			c2.016,0.563,3.185,0.846,3.505,0.846l2.176-0.282c1.855-0.242,3.169-0.363,3.951-0.363c1.96,0,3.64,0.162,5.033,0.484
			l2.096,0.483C534.333,130.993,535.987,131.731,535.987,133.209z"/>
		<path fill="#FFFFFF" d="M569.872,140.904c0.187,0.617,0.282,1.518,0.282,2.699c0,0.672-0.029,1.45-0.08,2.336
			c-0.218,2.635-0.795,4.191-1.733,4.674c-1.451,0-4.607,0.323-9.468,0.967l-7.254,0.968h0.041c0,0.054-1.262,0.35-3.787,0.886
			c-0.294-0.242-1.034-0.361-2.217-0.361c-0.35,0.35-0.548,0.549-0.603,0.604c0,0.752,2.833,1.921,8.501,3.506
			c1.557,0.08,3.328,0.227,5.318,0.441c3.329,0.404,4.995,1.236,4.995,2.5c0,0.349-1.035,1.045-3.102,2.094
			c-0.08,0.081-0.632,0.617-1.653,1.611c-1.906,0.188-2.861,0.309-2.861,0.363h0.083c-0.134,0-1.506-0.094-4.11-0.281l-4.229-0.324
			c-0.888,0-2.339-0.469-4.351-1.41c-0.43-0.215-1.6-0.818-3.506-1.813c-2.284-0.805-4.357-2.316-6.226-4.533
			c-1.867-2.215-2.8-4.235-2.8-6.063c0-2.256,0.282-3.921,0.846-4.996c4.002-7.869,12.127-11.805,24.376-11.805
			c3.974,0,6.956,0.913,8.942,2.739C566.835,137.104,568.366,138.836,569.872,140.904z M561.613,144.168
			c-0.403-1.262-0.698-2.283-0.888-3.063c-0.08-0.268-0.82-0.752-2.214-1.45c-3.063,0.269-6.366,0.711-9.913,1.329
			c-0.885,0.135-2.028,0.672-3.422,1.611c-1.371,0.941-2.057,1.667-2.057,2.176c0,0.484,0.146,0.727,0.445,0.727h12.771
			C559.316,145.498,561.074,145.054,561.613,144.168z"/>
	</g>
	<g>
		<polygon fill="#FFFFFF" points="277.176,99.281 290.344,89.438 290.344,58.59 277.176,58.59 		"/>
	</g>
</g>
</svg>
